<svg width="128" height="128" viewBox="0 0 128 128" xmlns="http://www.w3.org/2000/svg">
  <defs>
    <linearGradient id="grad" x1="0%" y1="0%" x2="100%" y2="100%">
      <stop offset="0%" style="stop-color:#5865f2;stop-opacity:1" />
      <stop offset="100%" style="stop-color:#4752c4;stop-opacity:1" />
    </linearGradient>
  </defs>
  
  <!-- Background circle -->
  <circle cx="64" cy="64" r="60" fill="url(#grad)" stroke="#2f3136" stroke-width="4"/>
  
  <!-- Translation icon -->
  <g fill="white">
    <!-- Letter A -->
    <path d="M 30 90 L 40 60 L 50 90 M 35 80 L 45 80" stroke="white" stroke-width="3" fill="none"/>
    
    <!-- Letter B -->
    <path d="M 55 60 L 55 90 L 70 90 Q 75 90 75 85 L 75 80 Q 75 75 70 75 L 55 75 M 55 60 L 70 60 Q 75 60 75 65 L 75 70 Q 75 75 70 75" stroke="white" stroke-width="3" fill="none"/>
    
    <!-- Translation arrows -->
    <path d="M 85 65 L 95 75 L 85 85 M 95 65 L 85 75 L 95 85" stroke="white" stroke-width="3" fill="none"/>
    
    <!-- Letter C -->
    <path d="M 100 65 Q 100 60 105 60 L 110 60 Q 115 60 115 65 L 115 85 Q 115 90 110 90 L 105 90 Q 100 90 100 85" stroke="white" stroke-width="3" fill="none"/>
  </g>
</svg> 